<svg version="1.0" xmlns="http://www.w3.org/2000/svg"
    width="2666px" height="399px" viewBox="0 0 2000.000000 300.000000"
    preserveAspectRatio="xMidYMid meet">
    <metadata> Created by potrace 1.16, written by Peter Selinger 2001-2019 </metadata>
    <g transform="translate(0.000000,300.000000) scale(0.100000,-0.100000)"
        fill="currentColor" stroke="none">
        <path
            d="M1705 2888 c-10 -6 -358 -350 -772 -764 -707 -707 -753 -756 -753
-788 0 -64 6 -66 251 -66 l219 0 0 -567 c0 -313 4 -573 8 -580 20 -32 69 -33
1082 -33 1013 0 1062 1 1082 33 4 7 8 265 8 575 l0 562 213 0 c243 0 257 4
257 68 0 34 -17 54 -340 377 l-340 340 0 301 0 301 -23 21 c-22 21 -32 22
-223 22 -153 0 -205 -3 -219 -14 -14 -10 -20 -30 -23 -76 l-5 -62 -181 181
c-113 112 -190 181 -202 181 -10 0 -28 -6 -39 -12z m256 -374 c203 -202 219
-216 246 -210 52 13 58 28 61 146 l4 110 109 0 109 0 0 -287 0 -288 292 -292
293 -293 -158 0 c-153 0 -191 -6 -209 -34 -4 -6 -8 -264 -8 -573 l0 -563 -960
0 -960 0 0 569 0 570 -22 15 c-18 13 -54 16 -189 16 l-167 0 665 665 c366 366
668 665 671 665 4 0 104 -97 223 -216z" />
        <path
            d="M5673 2206 c-103 -20 -167 -42 -262 -92 -223 -117 -381 -319 -448
-572 -22 -83 -26 -118 -26 -247 -1 -212 35 -351 134 -518 58 -98 202 -239 299
-294 345 -194 804 -148 1085 109 389 356 393 1030 7 1390 -107 100 -256 179
-403 213 -98 23 -293 28 -386 11z m306 -331 c179 -47 327 -199 385 -395 79
-264 -34 -588 -247 -713 -155 -91 -350 -99 -514 -20 -125 60 -248 217 -287
369 -74 289 45 596 279 717 109 56 267 74 384 42z" />
        <path
            d="M7653 2206 c-103 -20 -167 -42 -262 -92 -223 -117 -381 -319 -448
-572 -22 -83 -26 -118 -26 -247 -1 -212 35 -351 134 -518 58 -98 202 -239 299
-294 345 -194 804 -148 1085 109 389 356 393 1030 7 1390 -107 100 -256 179
-403 213 -98 23 -293 28 -386 11z m306 -331 c179 -47 327 -199 385 -395 79
-264 -34 -588 -247 -713 -155 -91 -350 -99 -514 -20 -125 60 -248 217 -287
369 -74 289 45 596 279 717 109 56 267 74 384 42z" />
        <path
            d="M3520 1296 l0 -896 170 0 170 0 0 360 0 360 83 0 82 0 195 -360 195
-359 198 -1 198 0 -32 58 c-18 31 -116 198 -216 371 -101 173 -183 316 -183
317 0 2 8 4 19 4 39 0 158 70 208 122 101 107 136 204 136 378 0 260 -126 439
-363 516 -48 15 -106 18 -457 22 l-403 4 0 -896z m713 585 c78 -30 122 -76
143 -148 34 -116 1 -246 -77 -302 -67 -49 -123 -61 -291 -61 l-148 0 0 271 0
271 158 -4 c132 -4 166 -9 215 -27z" />
        <path
            d="M8960 1295 l0 -895 170 0 170 0 1 638 1 637 19 -90 c11 -49 97 -308
192 -575 l173 -485 171 -3 171 -2 10 27 c5 16 83 233 173 483 92 258 172 497
183 552 l21 97 -3 -640 -4 -639 176 0 176 0 0 895 0 895 -238 0 -237 0 -207
-647 c-114 -357 -210 -661 -214 -678 -6 -28 -8 -25 -20 30 -8 33 -103 337
-212 675 l-198 615 -237 3 -237 2 0 -895z" />
        <path
            d="M11100 1295 l0 -895 170 0 170 0 0 370 0 370 305 0 305 0 0 155 0
155 -305 0 -305 0 0 215 0 215 330 0 330 0 0 155 0 155 -500 0 -500 0 0 -895z" />
        <path d="M12380 1295 l0 -895 175 0 175 0 0 895 0 895 -175 0 -175 0 0 -895z" />
        <path
            d="M13050 1295 l0 -895 175 0 175 0 2 696 3 696 376 -693 375 -694 242
-3 242 -2 0 895 0 895 -175 0 -175 0 -2 -697 -3 -697 -380 697 -380 697 -237
0 -238 0 0 -895z" />
        <path
            d="M14950 1295 l0 -895 319 0 c336 0 402 6 525 49 173 61 320 196 403
370 59 126 84 243 90 422 7 187 -11 317 -61 451 -46 123 -90 192 -178 280 -61
61 -96 86 -170 122 -165 81 -263 96 -660 96 l-268 0 0 -895z m643 555 c207
-64 328 -266 329 -550 0 -201 -51 -356 -151 -456 -98 -98 -196 -134 -363 -134
l-108 0 0 587 0 586 114 -6 c68 -4 140 -15 179 -27z" />
        <path
            d="M16540 1295 l0 -895 560 0 560 0 0 150 0 150 -385 0 -385 0 0 220 0
220 380 0 380 0 0 150 0 150 -380 0 -380 0 0 220 0 220 385 0 385 0 0 155 0
155 -560 0 -560 0 0 -895z" />
        <path
            d="M17970 1296 l0 -896 170 0 170 0 0 360 0 360 83 0 82 0 195 -360 195
-359 198 -1 198 0 -32 58 c-18 31 -116 198 -216 371 -101 173 -183 316 -183
317 0 2 8 4 19 4 39 0 158 70 208 122 101 107 136 204 136 378 0 260 -126 439
-363 516 -48 15 -106 18 -457 22 l-403 4 0 -896z m713 585 c78 -30 122 -76
143 -148 34 -116 1 -246 -77 -302 -67 -49 -123 -61 -291 -61 l-148 0 0 271 0
271 158 -4 c132 -4 166 -9 215 -27z" />
    </g>
</svg>