<?xml version="1.0" encoding="utf-8" ?>
<svg xmlns="http://www.w3.org/2000/svg" xmlns:xlink="http://www.w3.org/1999/xlink" width="2394" height="952">
	<path fill="#C3C6C7" d="M1519.97 316.499C1526.15 315.549 1532.3 315.412 1537.97 318.41Q1538.43 318.646 1538.87 318.906Q1539.32 319.165 1539.75 319.446Q1540.19 319.728 1540.6 320.03Q1541.02 320.333 1541.42 320.657Q1541.83 320.98 1542.21 321.323Q1542.6 321.666 1542.96 322.029Q1543.33 322.391 1543.68 322.771Q1544.03 323.151 1544.36 323.548Q1544.69 323.946 1545 324.359Q1545.3 324.772 1545.59 325.201Q1545.88 325.629 1546.14 326.071Q1546.41 326.513 1546.65 326.969Q1546.9 327.424 1547.12 327.89Q1547.34 328.357 1547.53 328.834Q1547.73 329.312 1547.9 329.798Q1548.07 330.284 1548.22 330.779Q1548.38 331.329 1548.51 331.887Q1548.64 332.445 1548.75 333.009Q1548.85 333.572 1548.92 334.14Q1549 334.709 1549.05 335.28Q1549.09 335.851 1549.11 336.424Q1549.13 336.996 1549.12 337.569Q1549.11 338.142 1549.07 338.714Q1549.03 339.286 1548.96 339.855Q1548.89 340.424 1548.8 340.989Q1548.7 341.554 1548.57 342.113Q1548.45 342.672 1548.3 343.225Q1548.14 343.777 1547.96 344.321Q1547.78 344.865 1547.58 345.4Q1547.37 345.934 1547.14 346.457Q1546.9 346.981 1546.64 347.492Q1546.38 348.003 1546.1 348.5C1542.59 354.664 1536.88 358.425 1530.16 360.298L1528.91 361.205C1525.62 361.57 1522.46 361.831 1519.26 360.772C1513.58 358.892 1508.93 353.623 1506.37 348.387C1503.65 342.837 1503.06 336.378 1505.12 330.522C1507.79 322.911 1513.06 319.702 1519.97 316.499Z"/>
	<path fill="#C3C6C7" d="M1505.99 387.499C1517.83 385.87 1531.21 387.338 1543.16 387.806C1544.22 389.33 1544.51 390.827 1544.68 392.637C1545.84 405.513 1546.85 544.176 1544.46 549.067C1544.08 549.843 1543.03 550.804 1542.46 551.5C1530.97 553.849 1516.14 552.038 1504.37 551.907C1508.34 545.512 1505.6 510.726 1505.48 501.96Q1504.83 463.086 1505.19 424.209C1505.35 412.667 1507.83 398.732 1505.99 387.499Z"/>
	<path fill="#C3C6C7" d="M2071.62 385.499C2083.18 383.572 2096.43 384.798 2108.15 385.081C2108.67 386.001 2109.1 386.982 2109.27 388.034C2110.11 393.04 2109.51 401.949 2106.55 406.187C2116.63 401.315 2119.95 392.534 2134.94 387.945C2141.42 385.961 2153.12 382.844 2159.22 386.503C2162.05 388.203 2163.69 390.901 2164.57 394.027C2166.72 401.648 2167.06 418.683 2163.14 425.494C2162.89 425.313 2162.57 425.055 2162.29 424.905C2153.95 420.446 2141.69 421.934 2133.11 424.957C2116 430.989 2111.95 446.035 2110.75 462.447C2110.46 466.497 2110.79 471.326 2108.89 474.993C2108.8 475.168 2108.7 475.335 2108.6 475.505C2109.16 476.372 2109.68 477.303 2109.96 478.306C2111.8 485.085 2111.18 546.797 2108.58 551.913L2068.43 551.91C2071.28 547.338 2070.02 461.199 2069.84 448.002C2069.58 428.55 2066.24 404.197 2071.62 385.499Z"/>
	<path fill="#C3C6C7" d="M1646.96 384.499C1660.09 382.574 1674.77 383.524 1686.27 390.701C1697.63 397.797 1704.91 410.076 1707.94 422.918Q1709.82 431.199 1710.17 439.683C1711.04 458.335 1709.92 477.325 1709.96 496.018C1709.99 512.797 1711.34 530.255 1710.01 546.949C1709.86 548.924 1709.38 550.397 1708.34 552.088C1696.17 552.461 1683.92 552.144 1671.74 552.098C1672.04 551.58 1672.06 551.568 1672.34 550.946C1675.13 544.688 1673.88 466.092 1672.57 453.205C1671.88 446.458 1670.73 439.761 1668.06 433.49C1665.82 428.238 1662.15 422.072 1656.53 419.943C1643.98 415.187 1633.38 422.165 1622.25 427.041C1619.69 431.446 1613.28 437.504 1608.92 440.333C1609.31 441.146 1609.68 441.997 1609.86 442.885C1611.73 451.712 1611.48 535.673 1610.42 546.714C1610.22 548.816 1609.72 550.35 1608.54 552.104C1596.14 552.693 1583.67 552.513 1571.26 552.563C1571.44 552.22 1571.52 552.08 1571.68 551.69C1573.34 547.556 1571.31 445.633 1571.56 430.643C1571.69 422.702 1574.17 392.645 1572.1 387.644C1584.26 385.409 1596.26 385.397 1608.51 386.781C1608.85 387.365 1609.16 387.951 1609.42 388.577C1611.36 393.315 1610.92 400.099 1609.12 404.78C1612.92 402.973 1616.21 399.598 1619.59 397.095C1628.2 390.721 1636.74 387.41 1646.96 384.499Z"/>
	<path fill="#C3C6C7" d="M1349.2 335.5C1393.57 333.107 1438.75 334.898 1483.22 335.036C1483.3 335.201 1483.38 335.367 1483.47 335.531C1483.85 336.245 1484.23 336.957 1484.49 337.728C1486.42 343.453 1486.33 365.262 1483.54 370.85C1451.95 372.32 1420.19 371.229 1388.58 370.849C1388.99 371.482 1389.35 372.127 1389.64 372.826C1392 378.582 1391.44 427.713 1388.67 433.538L1480.25 433.877C1480.73 434.588 1481.11 435.287 1481.29 436.14C1482.5 441.572 1482.84 454.298 1480 459.002C1480.44 459.963 1480.86 460.946 1481.13 461.97C1481.83 464.637 1481.34 467.477 1480.03 469.853C1449.58 470.853 1419.03 470.178 1388.57 469.913C1389.12 470.719 1389.58 471.593 1389.78 472.554C1391.39 480.229 1390.95 540.322 1390.03 549.579C1389.85 551.313 1389.34 552.599 1388.42 554.067C1374.97 554.201 1361.52 554.053 1348.07 554.01C1348.95 552.591 1349.35 551.315 1349.41 549.657C1349.83 537.369 1349.06 524.902 1349.12 512.582Q1349.83 459.6 1349.11 406.619Q1348.95 385.056 1349.11 363.494C1349.23 354.259 1350.11 344.684 1349.2 335.5Z"/>
	<path fill="#C3C6C7" d="M1982.59 382.5C1995.41 382.59 2007.29 384.882 2018.46 391.457C2034.52 400.92 2046.08 417.126 2050.62 435.117C2052.78 443.711 2056.42 471.619 2052.06 478.918C2014.67 479.204 1977.35 477.844 1939.96 478.913C1945.34 484.323 1947.5 500.556 1960.66 512.164C1968.8 519.335 1978.55 522.762 1989.39 521.966C1998.98 521.263 2015.37 515.397 2021.67 507.983C2026.87 509.114 2036.07 513.611 2039.26 518.035C2040.68 518.592 2042.08 519.389 2043.37 520.19C2046.39 522.058 2048.37 524.335 2049.16 527.813C2048.85 529.878 2048.09 531.227 2046.71 532.74C2034.68 545.981 2007.21 553.701 1989.89 554.623Q1988.85 554.671 1987.81 554.693Q1986.77 554.716 1985.73 554.713Q1984.69 554.709 1983.65 554.68Q1982.61 554.652 1981.57 554.597Q1980.53 554.543 1979.49 554.463Q1978.45 554.383 1977.41 554.277Q1976.38 554.172 1975.35 554.041Q1974.31 553.91 1973.28 553.754Q1972.26 553.597 1971.23 553.416Q1970.21 553.234 1969.19 553.027Q1968.16 552.821 1967.15 552.589Q1966.13 552.357 1965.13 552.1Q1964.12 551.844 1963.11 551.562Q1962.11 551.281 1961.12 550.975Q1960.12 550.669 1959.14 550.338Q1958.15 550.008 1957.17 549.653Q1956.19 549.299 1955.22 548.92Q1954.25 548.541 1953.29 548.139Q1952.33 547.737 1951.38 547.311Q1950.43 546.885 1949.49 546.436Q1948.55 545.987 1947.63 545.515Q1946.7 545.043 1945.78 544.548Q1944.87 544.053 1943.96 543.536Q1943.06 543.019 1942.17 542.48Q1941.28 541.941 1940.4 541.38Q1939.52 540.819 1938.66 540.236Q1937.8 539.654 1936.95 539.051Q1936.1 538.447 1935.27 537.823Q1934.44 537.199 1933.62 536.555Q1932.8 535.91 1932 535.246Q1931.2 534.582 1930.41 533.898Q1929.63 533.214 1928.86 532.511C1912.35 517.6 1903.62 498.542 1902.48 476.403C1901.21 451.765 1907.56 427.07 1924.42 408.541C1939.69 391.751 1960.2 383.589 1982.59 382.5ZM1973.52 414.499C1959.85 422.059 1951.34 427.827 1945.61 443.151C1944.8 445.331 1943.9 448.837 1942.17 450.383L1983.75 450.064C1992.52 450.353 2008.84 452.644 2015.74 446.428C2017.26 445.049 2018.01 443.504 2017.94 441.423C2017.7 434.938 2009.9 427.754 2005.09 423.829C1996.45 416.765 1986.76 413.046 1975.54 414.262Q1974.53 414.372 1973.52 414.499Z"/>
	<path fill="#8D99AE" d="M1218.62 403.131C1226.84 399.79 1234.13 392.072 1242.37 388.049C1254.54 382.11 1269.82 381.276 1282.56 385.721C1296.51 390.586 1307.64 401.415 1314.01 414.622C1317.61 422.088 1319.41 430.068 1320.29 438.276C1321.72 451.519 1322.35 546.364 1319.8 553.666Q1302.52 553.782 1285.25 553.346Q1285.88 552.097 1286.26 550.75Q1286.64 549.402 1286.75 548.007C1288.21 530.01 1286.86 511.055 1286.78 492.968C1286.71 478.668 1287.81 464.249 1287.25 449.973C1287.07 445.25 1286.59 440.417 1285.32 435.851C1283.29 428.506 1279.27 422.196 1272.45 418.493C1266.36 415.178 1257.52 413.602 1250.8 415.756C1214.19 427.505 1238.99 517.207 1229.65 533.998C1229.55 534.172 1229.44 534.337 1229.33 534.507C1229.87 535.274 1230.33 536.097 1230.57 537.009C1231.8 541.605 1231.81 549.834 1229.23 553.951L1194.44 553.952C1194.55 553.773 1194.66 553.598 1194.75 553.416C1197.22 548.766 1196.83 468.185 1196.2 457.05C1195.83 450.399 1195.31 442.492 1193.01 436.199C1190.44 429.191 1184.76 422.155 1177.85 419.119C1170.55 415.914 1162.07 416.782 1154.84 419.738Q1153.99 420.077 1153.16 420.46Q1152.33 420.843 1151.53 421.269Q1150.72 421.695 1149.93 422.162Q1149.15 422.63 1148.39 423.137Q1147.63 423.645 1146.9 424.192Q1146.17 424.739 1145.46 425.323Q1144.76 425.907 1144.09 426.527Q1143.42 427.148 1142.78 427.802Q1142.15 428.456 1141.54 429.143Q1140.94 429.83 1140.38 430.547Q1139.81 431.264 1139.28 432.01Q1138.76 432.756 1138.27 433.528Q1137.78 434.301 1137.33 435.097Q1136.89 435.894 1136.48 436.713Q1136.08 437.532 1135.72 438.371Q1135.36 439.21 1135.04 440.067C1130 453.862 1133.02 513.663 1133.12 532.332C1133.15 538.417 1134.37 547.689 1131.87 553.245C1131.78 553.459 1131.67 553.67 1131.57 553.883L1095.91 553.748C1096.33 552.949 1096.76 552.055 1096.95 551.166C1098.65 542.766 1096.79 507.968 1096.73 497.015C1096.57 462.476 1098.05 427.587 1096.79 393.101C1096.7 390.683 1096.36 388.937 1095.08 386.858C1107.19 386.247 1119.38 386.465 1131.5 386.437C1131.72 386.819 1131.81 386.969 1132.01 387.401C1134.27 392.433 1133.4 400.055 1131.5 405.046C1135.18 403.13 1138.4 400.02 1141.61 397.402C1150.42 390.204 1158.47 386.326 1169.45 383.499C1175.62 383.377 1181.59 383.572 1187.61 385.013C1197.82 387.455 1212.94 393.871 1218.62 403.131Z"/>
	<path fill="#8D99AE" d="M816.544 382.371C816.821 382.322 817.097 382.26 817.376 382.224C837.312 379.671 859.709 385.635 875.837 397.536C894.774 411.508 904.268 433.61 907.655 456.362C911.243 480.47 906.888 504.713 892.128 524.479C877.823 543.637 856.963 552.915 833.753 556.329C811.895 558.34 788.637 553.511 771.204 539.699C752.616 524.972 742.255 502.278 739.67 479.04C737.054 455.514 741.231 430.715 756.391 411.93C771.464 393.254 793.247 384.813 816.544 382.371ZM817.146 415.133C803.123 419.099 792.617 424.444 785.198 437.68C776.829 452.609 775.336 473.204 780.045 489.528C783.353 500.996 790.621 510.862 801.168 516.634C809.851 521.387 820.43 522.944 830.219 521.97C842.691 519.361 852.449 515.055 859.832 503.993C869.379 489.688 871.223 469.393 867.814 452.864C865.26 440.486 858.835 428.978 848.09 421.906C839.431 416.207 827.47 413.511 817.146 415.133Z"/>
	<path fill="#8D99AE" d="M989.27 383.492C1010.92 381.366 1033.36 386.601 1050.73 399.981C1069.64 414.544 1080.32 437.756 1083.26 461.067C1086.22 484.475 1080.31 508.088 1065.68 526.743C1050.44 546.182 1029.22 555.898 1005.06 558.907C987.249 559.593 969.104 557.12 953.622 547.787C934.764 536.42 920.578 516.165 915.369 494.871C909.406 470.494 914.992 441.704 928.058 420.473C942.807 396.509 963.261 389.676 989.27 383.492ZM993.378 414.493C978.956 418.436 967.847 424.236 960.084 437.712C951.219 453.098 950.326 473.366 954.883 490.25C958.441 503.432 966.143 515.622 978.302 522.423Q979.718 523.2 981.187 523.874Q982.655 524.548 984.168 525.115Q985.681 525.682 987.23 526.139Q988.78 526.597 990.358 526.942Q991.936 527.287 993.535 527.519Q995.134 527.751 996.746 527.867Q998.357 527.984 999.973 527.985Q1001.59 527.986 1003.2 527.871C1017.02 525.118 1028.98 519.491 1037.15 507.365C1046.68 493.207 1048.58 473.616 1045.14 457.207C1042.2 443.165 1034.6 430.176 1022.41 422.257C1013.57 416.514 1003.85 414.289 993.378 414.493Z"/>
	<path fill="#8D99AE" d="M610.545 333.569C621.185 332.916 632.01 332.66 642.668 332.958C665.237 333.591 688.411 338.565 704.409 355.655C715.426 367.423 719.988 381.94 719.337 397.907C718.21 425.566 702.746 440.788 683.507 458.406C703.18 480.672 728.377 526.837 741.367 554.216C727.266 556.622 713.475 555.479 699.261 554.822C692.545 545.47 686.961 535.469 681.242 525.492C669.484 505.292 658.655 484.933 640.204 469.974C630.569 469.389 620.873 469.574 611.223 469.569Q611.754 512.349 611.331 555.13C598.579 555.904 585.875 555.552 573.114 555.25C571.321 482.357 573.241 409.033 573.578 336.105C585.862 336.006 598.283 334.414 610.545 333.569ZM621.191 364.221C618.448 365.176 615.236 365.86 613.255 368.076C611.219 377.932 608.992 427.756 613.48 435.081C614.344 436.491 616.796 437.298 618.363 437.625C630.654 440.189 650.766 436.098 662.251 431.074C670.475 426.002 675.792 419.897 678.073 410.232Q678.289 409.284 678.457 408.326Q678.626 407.369 678.747 406.404Q678.868 405.439 678.941 404.47Q679.015 403.5 679.04 402.528Q679.065 401.556 679.042 400.584Q679.019 399.612 678.948 398.642Q678.877 397.673 678.758 396.707Q678.639 395.742 678.472 394.784Q678.306 393.827 678.092 392.878Q677.878 391.929 677.618 390.993Q677.358 390.056 677.051 389.133Q676.745 388.21 676.393 387.304Q676.041 386.397 675.645 385.509Q675.249 384.621 674.81 383.754Q674.37 382.887 673.888 382.042Q673.406 381.198 672.883 380.378C667.465 372.03 659.058 366.576 649.341 364.642C640.272 362.837 630.362 363.476 621.191 364.221Z"/>
	<path fill="#C3C6C7" d="M1850.51 320.5C1862.73 319.585 1875.12 320.038 1887.36 320.402Q1887.77 321.085 1888.07 321.821C1890.04 326.491 1891.52 544.091 1888.77 551.506C1876.08 552.335 1863.31 551.926 1850.6 551.779C1850.88 551.197 1851.07 550.622 1851.2 549.99C1852.01 546.029 1850.94 542.283 1848.79 538.969C1845.2 542.591 1837.99 545.712 1833.38 548.234C1813.76 558.98 1793.39 554.374 1773.09 548.499C1769.74 545.911 1765.94 543.986 1762.54 541.465C1743.11 527.092 1730.98 506.749 1727.38 482.769C1723.88 459.426 1729.29 434.648 1743.41 415.582Q1743.99 414.8 1744.58 414.033Q1745.18 413.265 1745.79 412.513Q1746.41 411.76 1747.04 411.023Q1747.67 410.286 1748.32 409.565Q1748.97 408.844 1749.64 408.139Q1750.31 407.434 1751 406.746Q1751.68 406.058 1752.39 405.387Q1753.09 404.717 1753.81 404.063Q1754.53 403.41 1755.26 402.775Q1756 402.139 1756.75 401.522Q1757.5 400.905 1758.26 400.307Q1759.03 399.709 1759.81 399.13Q1760.59 398.551 1761.38 397.991Q1762.17 397.431 1762.98 396.892Q1763.79 396.352 1764.61 395.832Q1765.43 395.312 1766.27 394.813Q1767.1 394.314 1767.94 393.835Q1768.79 393.357 1769.65 392.9Q1770.5 392.442 1771.37 392.006Q1772.24 391.57 1773.12 391.156Q1774 390.741 1774.89 390.349Q1775.77 389.956 1776.67 389.586Q1777.57 389.215 1778.48 388.867Q1779.38 388.519 1780.3 388.193Q1781.21 387.867 1782.14 387.564Q1783.06 387.262 1783.99 386.982Q1784.92 386.702 1785.86 386.445Q1786.79 386.188 1787.74 385.954Q1788.68 385.721 1789.63 385.51Q1790.58 385.3 1791.53 385.113Q1792.48 384.927 1793.44 384.763Q1794.4 384.6 1795.36 384.461C1810.14 382.271 1834.97 383.961 1847.3 393.17C1850.96 386.888 1848.23 334.211 1849.21 322.009C1849.27 321.247 1849.95 320.979 1850.51 320.5ZM1803.55 418.499C1787.52 425.389 1776.53 432.947 1769.9 449.627Q1769.39 450.884 1768.94 452.165Q1768.49 453.446 1768.1 454.748Q1767.72 456.049 1767.39 457.369Q1767.07 458.688 1766.82 460.022Q1766.56 461.355 1766.38 462.7Q1766.19 464.044 1766.07 465.397Q1765.94 466.749 1765.89 468.105Q1765.84 469.462 1765.85 470.82Q1765.86 472.177 1765.94 473.533Q1766.02 474.888 1766.17 476.238Q1766.32 477.587 1766.53 478.928Q1766.75 480.269 1767.03 481.597Q1767.31 482.925 1767.66 484.238Q1768 485.551 1768.41 486.845Q1768.82 488.139 1769.3 489.411Q1769.77 490.683 1770.31 491.93C1775.12 502.856 1783.69 511.523 1794.89 515.804C1800.47 517.935 1805.95 518.457 1811.83 518.819C1822.05 518.551 1832.39 514.009 1839.41 506.564C1850.54 494.748 1852.76 476.702 1852.16 461.145C1851.7 448.997 1849.2 436.328 1839.83 427.745C1831.09 419.731 1819.71 417.388 1808.22 418.034C1806.65 418.122 1805.1 418.236 1803.55 418.499Z"/>
	<path fill="#EBEDEE" d="M2000.28 200.5C2025.78 199.866 2051.7 200.408 2077.17 201.78C2081.31 204.137 2261.31 385.812 2261.87 387.12C2262.16 387.768 2262.4 388.343 2262.54 389.04C2264.83 399.859 2263.21 422.354 2263.26 434.898C2263.4 471.026 2265.13 512.057 2262.73 547.597C2262.59 549.647 2262.19 551.116 2261.1 552.859C2253.68 553.364 2246.19 553.458 2238.75 553.727C2222.42 554.051 2205.94 553.103 2189.61 552.637C2190.44 551.203 2190.85 549.822 2190.95 548.155C2191.72 535.362 2190.28 521.869 2190.35 508.984C2190.49 480.204 2191.36 451.439 2191.15 422.654C2191.04 407.713 2191.05 393.988 2179.71 382.927C2167.71 371.222 2153.96 369.093 2137.94 369.268C2136.22 360.653 2028.37 254.286 2011.22 236.55C2002.36 227.392 1987.05 207.976 1977.76 201.391L2000.28 200.5Z"/>
	<path fill="#8D99AE" d="M319.634 206.435C340.401 204.772 363.109 207.941 383.115 213.492C436.238 228.233 481.391 265.419 508.373 313.203C538.289 366.181 548.185 426.459 527.624 484.593C520.642 504.333 509.808 522.171 504.161 542.495C519.938 582.058 622.15 656.726 656.929 693.075C664.992 701.501 670.967 711.029 670.571 723.163C670.216 734.023 664.644 745.755 656.609 753.117C650.997 758.259 644.071 760.659 636.482 760.288C629.497 759.947 623.051 757.209 617.292 753.37C596.528 739.53 568.212 703.389 550.343 683.758Q532.702 665.912 516.257 646.959C503.623 632.611 481.452 602.901 464.883 594.571C440.738 594.375 423.093 607.27 401.594 616.116Q395.326 618.697 388.872 620.769Q382.417 622.841 375.818 624.39Q369.219 625.94 362.517 626.956Q355.815 627.973 349.053 628.451C289.997 632.642 231.681 615.878 186.766 576.724C143.815 539.283 121.899 486.686 118.21 430.419Q118.03 427.813 117.915 425.203Q117.8 422.593 117.75 419.981Q117.7 417.369 117.715 414.757Q117.73 412.145 117.81 409.534Q117.889 406.923 118.034 404.314Q118.179 401.706 118.388 399.102Q118.597 396.498 118.871 393.9Q119.145 391.302 119.484 388.712Q119.822 386.121 120.225 383.54Q120.628 380.959 121.094 378.389Q121.561 375.818 122.091 373.261Q122.622 370.703 123.216 368.159Q123.809 365.615 124.466 363.086Q125.123 360.558 125.842 358.047Q126.562 355.535 127.344 353.043Q128.125 350.55 128.968 348.077Q129.812 345.605 130.716 343.154Q131.621 340.703 132.586 338.276Q133.551 335.848 134.576 333.445Q135.601 331.043 136.685 328.666Q137.77 326.289 138.913 323.94Q140.056 321.591 141.258 319.272Q142.459 316.952 143.717 314.663Q144.976 312.373 146.291 310.116Q147.606 307.859 148.976 305.635Q150.347 303.411 151.772 301.222Q153.198 299.033 154.677 296.88Q156.156 294.726 157.689 292.611Q159.221 290.495 160.806 288.418Q162.39 286.341 164.026 284.304Q165.662 282.267 167.347 280.272Q169.033 278.276 170.768 276.323C210.285 231.533 260.646 210.012 319.634 206.435ZM472.145 524.263Q479.337 514.854 485.287 504.614C510.394 460.566 509.114 414.276 496.204 366.734C480.64 320.181 448.762 281.125 404.486 259.004C364.38 238.967 313.697 234.325 271.05 248.692C228.468 263.038 190.344 295.182 170.434 335.62C148.856 379.448 146.083 433.826 161.914 479.925Q162.596 481.924 163.327 483.906Q164.058 485.888 164.837 487.851Q165.616 489.815 166.443 491.759Q167.27 493.702 168.144 495.625Q169.018 497.548 169.939 499.449Q170.86 501.35 171.827 503.228Q172.795 505.106 173.808 506.96Q174.82 508.813 175.878 510.642Q176.936 512.47 178.039 514.272Q179.141 516.073 180.288 517.848Q181.434 519.622 182.623 521.368Q183.812 523.114 185.044 524.83Q186.276 526.546 187.549 528.231Q188.822 529.917 190.137 531.57Q191.451 533.224 192.805 534.845Q194.159 536.466 195.553 538.054Q196.946 539.641 198.378 541.194Q199.81 542.747 201.28 544.265Q202.749 545.782 204.256 547.263Q205.762 548.744 207.304 550.188Q208.846 551.631 210.423 553.037Q212 554.442 213.611 555.809Q215.221 557.175 216.865 558.502Q218.509 559.828 220.185 561.114Q221.861 562.4 223.567 563.645Q225.274 564.889 227.011 566.092Q228.747 567.294 230.513 568.454Q232.279 569.613 234.072 570.729Q235.866 571.845 237.686 572.917Q239.506 573.989 241.352 575.016Q243.198 576.043 245.069 577.024Q246.939 578.006 248.833 578.941Q250.828 579.899 252.845 580.809Q254.862 581.718 256.902 582.578Q258.941 583.437 261 584.247Q263.06 585.056 265.139 585.815Q267.218 586.573 269.314 587.281Q271.411 587.988 273.525 588.644Q275.638 589.3 277.767 589.904Q279.896 590.508 282.039 591.059Q284.182 591.611 286.338 592.109Q288.494 592.608 290.662 593.054Q292.829 593.5 295.007 593.892Q297.185 594.285 299.372 594.624Q301.559 594.963 303.753 595.248Q305.948 595.533 308.148 595.765Q310.349 595.996 312.555 596.174Q314.761 596.351 316.97 596.474Q319.18 596.598 321.392 596.667Q323.603 596.736 325.816 596.751Q328.029 596.765 330.242 596.726Q332.454 596.687 334.665 596.593Q336.876 596.499 339.084 596.352Q341.292 596.204 343.496 596.002Q345.7 595.8 347.898 595.544Q350.096 595.288 352.287 594.979Q354.478 594.669 356.661 594.306Q358.844 593.943 361.017 593.526Q363.19 593.109 365.353 592.64Q367.515 592.17 369.666 591.647Q371.816 591.124 373.953 590.549Q376.09 589.974 378.212 589.347Q380.334 588.719 382.44 588.04Q384.546 587.361 386.635 586.63C418.595 575.429 453.353 553.098 472.145 524.263Z"/>
	<path fill="#C3C6C7" fill-opacity="0.015686275" d="M472.145 524.263C453.353 553.098 418.595 575.429 386.635 586.63Q384.546 587.361 382.44 588.04Q380.334 588.719 378.212 589.347Q376.09 589.974 373.953 590.549Q371.816 591.124 369.666 591.647Q367.515 592.17 365.353 592.64Q363.19 593.109 361.017 593.526Q358.844 593.943 356.661 594.306Q354.478 594.669 352.287 594.979Q350.096 595.288 347.898 595.544Q345.7 595.8 343.496 596.002Q341.292 596.204 339.084 596.352Q336.876 596.499 334.665 596.593Q332.454 596.687 330.242 596.726Q328.029 596.765 325.816 596.751Q323.603 596.736 321.392 596.667Q319.18 596.598 316.97 596.474Q314.761 596.351 312.555 596.174Q310.349 595.996 308.148 595.765Q305.948 595.533 303.753 595.248Q301.559 594.963 299.372 594.624Q297.185 594.285 295.007 593.892Q292.829 593.5 290.662 593.054Q288.494 592.608 286.338 592.109Q284.182 591.611 282.039 591.059Q279.896 590.508 277.767 589.904Q275.638 589.3 273.525 588.644Q271.411 587.988 269.314 587.281Q267.218 586.573 265.139 585.815Q263.06 585.056 261 584.247Q258.941 583.437 256.902 582.578Q254.862 581.718 252.845 580.809Q250.828 579.899 248.833 578.941Q246.939 578.006 245.068 577.024Q243.198 576.043 241.352 575.016Q239.506 573.989 237.686 572.917Q235.866 571.845 234.072 570.729Q232.279 569.613 230.513 568.454Q228.747 567.294 227.011 566.092Q225.274 564.889 223.567 563.645Q221.861 562.4 220.185 561.114Q218.509 559.828 216.865 558.502Q215.221 557.175 213.611 555.809Q212 554.442 210.423 553.037Q208.846 551.631 207.304 550.188Q205.762 548.744 204.256 547.263Q202.749 545.782 201.28 544.265Q199.81 542.747 198.378 541.194Q196.946 539.641 195.553 538.054Q194.159 536.466 192.805 534.845Q191.451 533.224 190.137 531.57Q188.822 529.917 187.549 528.231Q186.276 526.546 185.044 524.83Q183.812 523.114 182.623 521.368Q181.434 519.622 180.288 517.848Q179.141 516.073 178.039 514.272Q176.936 512.47 175.878 510.642Q174.82 508.813 173.808 506.96Q172.795 505.106 171.827 503.228Q170.86 501.35 169.939 499.449Q169.018 497.548 168.144 495.625Q167.27 493.702 166.443 491.759Q165.616 489.815 164.837 487.851Q164.058 485.888 163.327 483.906Q162.596 481.924 161.914 479.925C146.083 433.826 148.856 379.448 170.434 335.62C190.344 295.182 228.468 263.038 271.05 248.692C313.697 234.325 364.38 238.967 404.486 259.004C448.762 281.125 480.64 320.181 496.204 366.734C509.114 414.276 510.394 460.566 485.287 504.614Q479.337 514.854 472.145 524.263ZM209.743 534.178L211.605 535.147C214.665 538.57 218.391 539.346 222.639 540.539C227.253 547.309 231.79 552.647 238.551 557.353C269.904 579.177 315.166 588.419 352.494 581.519C399.183 572.889 442.6 543.998 469.318 504.862C484.544 482.559 495.371 455.239 492.772 427.803C491.894 418.543 489.31 409.744 487.589 400.645C486.68 398.903 486.418 396.258 485.973 394.313C481.237 381.404 478.366 367.81 473.27 355.079C457.935 316.769 428.109 287.383 390.836 270.177C380.237 265.284 369.873 263.46 358.797 260.282C351.363 258.148 344.388 254.412 336.895 252.504C321.968 248.702 297.696 252.046 283.418 257.106C282.687 257.955 282.514 258.344 282.407 259.46C243.284 269.008 211.023 293.028 190.083 327.659C167.319 365.303 159.122 416.26 169.764 459.046Q172.547 470.133 177.187 480.58C181.307 489.797 203.204 530.379 209.215 533.89C209.388 533.991 209.567 534.082 209.743 534.178ZM485.973 394.313C486.418 396.258 486.68 398.903 487.589 400.645C494.02 406.527 495.711 423.66 496.116 432.097C497.548 461.964 482.185 488.648 468.257 513.885C466.945 516.262 465.635 518.609 464.119 520.865C464.034 520.99 462.754 522.836 462.756 522.844C462.782 523.02 464.015 524.201 464.222 524.424C467.074 524.992 469.312 524.705 472.145 524.263Q479.337 514.854 485.287 504.614C510.394 460.566 509.114 414.276 496.204 366.734C494.321 368.665 492.267 370.471 491.407 373.101C489.07 371.655 489.414 367.69 486.777 367.753C483.324 374.86 486.301 386.405 485.973 394.313Z"/>
	<path fill="#EBEDEE" fill-opacity="0.050980393" d="M209.743 534.178C209.567 534.082 209.388 533.991 209.215 533.89C203.204 530.379 181.307 489.797 177.187 480.58Q172.547 470.133 169.764 459.046C159.122 416.26 167.319 365.303 190.083 327.659C211.023 293.028 243.284 269.008 282.407 259.46C282.514 258.344 282.687 257.955 283.418 257.106C297.696 252.046 321.968 248.702 336.895 252.504C344.388 254.412 351.363 258.148 358.797 260.282C369.873 263.46 380.237 265.284 390.836 270.177C428.109 287.383 457.935 316.769 473.27 355.079C478.366 367.81 481.237 381.404 485.973 394.313C486.418 396.258 486.68 398.903 487.589 400.645C489.31 409.744 491.894 418.543 492.772 427.803C495.371 455.239 484.544 482.559 469.318 504.862C442.6 543.998 399.183 572.889 352.494 581.519C315.166 588.419 269.904 579.177 238.551 557.353C231.79 552.647 227.253 547.309 222.639 540.539C218.391 539.346 214.665 538.57 211.605 535.147L209.743 534.178ZM327.908 344.136C303.763 354.242 279.824 364.931 255.569 374.754C236.343 382.54 207.708 388.77 192.018 401.29C215.805 415.679 311.592 460.054 336.23 462.818L334.749 466.328C336.914 468.06 340.373 467.286 343.148 467.181C365.839 456.39 390.078 448.381 412.31 436.743C416.529 440.621 415.065 445.329 417.522 450.034C418.883 446.287 415.96 442.36 416.537 438.453C417.096 434.663 421.107 432.639 421.493 429.106C418.437 427.612 415.207 427.731 411.879 427.625C430.045 420.089 449.349 413.138 465.661 402.01C448.487 392.252 429.293 386.259 411.131 378.591C383.55 366.947 356.226 353.864 327.908 344.136Z"/>
	<path fill="#8D99AE" d="M223.026 427.647C229.926 447.893 231.346 472.151 227.889 493.227C233.557 502.687 241.027 513.736 238.226 525.358C237.419 528.702 235.581 531.717 232.584 533.513C226.531 537.14 218.283 536.17 211.605 535.147L209.743 534.178C207.09 526.173 205.813 519.815 209.873 511.865C213.48 504.801 219.47 499.183 223.241 492.175L216.761 483.112C218.346 477.915 220.313 472.417 220.916 467.007C222.401 453.705 220.125 440.98 223.026 427.647Z"/>
	<path fill="#8D99AE" d="M343.148 467.181C365.839 456.39 390.078 448.381 412.31 436.743C411.198 455.353 418.983 483.214 402.945 497.402C385.079 513.207 337.187 514.571 314.129 512.907C290.458 511.198 265.876 504.979 248.439 487.992C246.534 471.453 244.474 454.859 245.643 438.18C275.504 447.356 302.198 463.781 332.02 472.733L343.148 467.181Z"/>
	<path fill="#8D99AE" d="M327.908 344.136C356.226 353.864 383.55 366.947 411.131 378.591C429.293 386.259 448.487 392.252 465.661 402.01C449.349 413.138 430.045 420.089 411.879 427.625C415.207 427.731 418.437 427.612 421.493 429.106C421.107 432.639 417.096 434.663 416.537 438.453C415.96 442.36 418.883 446.287 417.522 450.034C415.065 445.329 416.529 440.621 412.31 436.743C390.078 448.381 365.839 456.39 343.148 467.181C340.373 467.286 336.914 468.06 334.749 466.328L336.23 462.818C311.592 460.054 215.805 415.679 192.018 401.29C207.708 388.77 236.343 382.54 255.569 374.754C279.824 364.931 303.763 354.242 327.908 344.136ZM411.879 427.625C394.117 435.133 348.677 451.327 336.23 462.818L334.749 466.328C336.914 468.06 340.373 467.286 343.148 467.181C365.839 456.39 390.078 448.381 412.31 436.743C416.529 440.621 415.065 445.329 417.522 450.034C418.883 446.287 415.96 442.36 416.537 438.453C417.096 434.663 421.107 432.639 421.493 429.106C418.437 427.612 415.207 427.731 411.879 427.625Z"/>
	<path fill="#C3C6C7" fill-opacity="0.023529412" d="M411.879 427.625C415.207 427.731 418.437 427.612 421.493 429.106C421.107 432.639 417.096 434.663 416.537 438.453C415.96 442.36 418.883 446.287 417.522 450.034C415.065 445.329 416.529 440.621 412.31 436.743C390.078 448.381 365.839 456.39 343.148 467.181C340.373 467.286 336.914 468.06 334.749 466.328L336.23 462.818C348.677 451.327 394.117 435.133 411.879 427.625Z"/>
</svg>
