<?xml version="1.0" encoding="utf-8" ?>
<svg xmlns="http://www.w3.org/2000/svg" xmlns:xlink="http://www.w3.org/1999/xlink" width="2436" height="2436">
	<path fill="#C3C7C8" transform="scale(0.594727 0.594727)" d="M2598.18 1778.48C2604.4 1778.78 2610.98 1778.89 2616.92 1780.94C2625.64 1783.95 2633.36 1790.71 2637.23 1799.11C2641.69 1808.82 2641.05 1820.22 2636.72 1829.84C2630.32 1844.06 2619.69 1850.29 2605.64 1855.48C2598.02 1855.69 2590.05 1854.37 2583.34 1850.59Q2582.46 1850.09 2581.61 1849.56Q2580.76 1849.02 2579.94 1848.43Q2579.11 1847.85 2578.32 1847.23Q2577.53 1846.6 2576.77 1845.94Q2576.01 1845.27 2575.29 1844.57Q2574.57 1843.87 2573.88 1843.13Q2573.19 1842.39 2572.55 1841.62Q2571.9 1840.84 2571.29 1840.04Q2570.69 1839.23 2570.12 1838.4Q2569.56 1837.56 2569.04 1836.7Q2568.52 1835.83 2568.05 1834.94Q2567.57 1834.05 2567.14 1833.14Q2566.71 1832.23 2566.33 1831.29Q2565.95 1830.36 2565.62 1829.41Q2565.29 1828.46 2565.01 1827.49Q2564.72 1826.52 2564.49 1825.54Q2564.26 1824.6 2564.07 1823.65Q2563.89 1822.7 2563.75 1821.75Q2563.61 1820.79 2563.53 1819.83Q2563.44 1818.87 2563.4 1817.9Q2563.36 1816.93 2563.37 1815.97Q2563.38 1815 2563.44 1814.04Q2563.5 1813.07 2563.61 1812.11Q2563.72 1811.15 2563.87 1810.2Q2564.03 1809.24 2564.24 1808.3Q2564.44 1807.35 2564.69 1806.42Q2564.95 1805.49 2565.25 1804.57Q2565.55 1803.65 2565.89 1802.75Q2566.24 1801.85 2566.63 1800.96Q2567.02 1800.08 2567.46 1799.22Q2567.89 1798.35 2568.37 1797.51Q2568.85 1796.67 2569.37 1795.86C2576.26 1785.03 2586.21 1781.27 2598.18 1778.48Z"/>
	<path fill="#C3C7C8" transform="scale(0.594727 0.594727)" d="M2570.02 1898.54Q2601.31 1898.61 2632.59 1899.52C2633.11 1991.05 2635.96 2083.64 2632.69 2175.04C2611.18 2176.48 2589.34 2175.76 2567.79 2175.5C2567.59 2138.7 2562.65 1910.74 2570.02 1898.54Z"/>
	<path fill="#C3C7C8" transform="scale(0.594727 0.594727)" d="M3521.3 1894.8C3541.73 1894.52 3562.16 1893.97 3582.57 1895.21C3582.52 1906.86 3581.11 1918.8 3580.25 1930.44C3594.28 1916.49 3605.81 1903.63 3626.21 1899.26C3637.25 1896.89 3662.59 1894.29 3671.73 1900.47C3680.28 1913.97 3675.7 1946.88 3675.42 1962.86L3668.72 1961.12C3661.69 1959.27 3654.81 1957.24 3647.47 1957.28C3630.05 1957.36 3613.08 1963.34 3601.04 1976.2C3581.4 1997.18 3583.59 2025.01 3583.9 2051.5Q3584.11 2113.52 3583.57 2175.54Q3549.91 2176.06 3516.24 2175.59C3514.49 2119.65 3515.86 2063.22 3515.74 2007.22C3515.68 1974.38 3512.71 1938.24 3516.28 1905.68C3516.92 1899.88 3517.49 1898.92 3521.3 1894.8Z"/>
	<path fill="#C3C7C8" transform="scale(0.594727 0.594727)" d="M2814.05 1892.81Q2818.35 1892.64 2822.65 1892.6C2845.86 1892.39 2867.46 1898.47 2884.04 1915.43Q2886.15 1917.62 2888.1 1919.93Q2890.06 1922.25 2891.86 1924.7Q2893.66 1927.14 2895.3 1929.7Q2896.93 1932.26 2898.4 1934.91Q2899.86 1937.57 2901.14 1940.32Q2902.43 1943.07 2903.53 1945.9Q2904.63 1948.73 2905.54 1951.63Q2906.45 1954.52 2907.17 1957.47C2913.61 1983.78 2910.48 2015.05 2910.6 2042.11L2910.93 2176.06C2890.39 2176.64 2869.64 2176.13 2849.07 2176.14C2846.23 2131.3 2856.96 2006.65 2839.58 1973.5C2834.57 1963.94 2826.66 1955.71 2816.08 1952.61C2796.98 1947.03 2778.71 1957.57 2762.87 1967C2755.52 1973.3 2749.29 1980.57 2742.84 1987.75C2742.63 2050.51 2744.54 2113.36 2743.13 2176.1C2722.05 2176.97 2700.7 2176.52 2679.58 2176.69C2677.78 2148.25 2675.32 1915.75 2680.92 1900.22C2698.03 1893.19 2724.43 1897.17 2742.85 1897.86L2743.57 1928.61C2765.25 1905.99 2783.82 1897.73 2814.05 1892.81Z"/>
	<path fill="#C3C7C8" transform="scale(0.594727 0.594727)" d="M2496.58 1811.01L2532.03 1811.07C2532.99 1830.99 2532.47 1851.09 2532.49 1871.03C2479.73 1873.8 2425.79 1871.69 2372.94 1871.02C2373.89 1906.11 2372.95 1941.42 2372.83 1976.53L2526.42 1977.06C2526.6 1997.22 2526.74 2017.3 2525.86 2037.45C2475.33 2040.09 2423.49 2037.73 2372.84 2037.69L2372.79 2068.5L2373.01 2179.3Q2338.89 2179.97 2304.77 2179.23C2302.57 2123.23 2304.64 2066.19 2304.51 2010.09C2304.36 1944.18 2302.24 1877.64 2304.79 1811.79C2368.33 1808.96 2432.92 1811.18 2496.58 1811.01Z"/>
	<path fill="#C3C7C8" transform="scale(0.594727 0.594727)" d="M3361.46 1890.92Q3367.73 1890.67 3374.01 1890.74C3404.76 1891.2 3432.12 1902.8 3453.48 1925.23C3489.63 1963.21 3488.99 2003.71 3488.17 2052.78C3425.57 2053.56 3362.73 2050.57 3300.17 2052.76C3303.37 2065.79 3306.77 2077.22 3314.18 2088.62C3325.8 2106.51 3342.91 2119.81 3364.06 2124.14C3392.52 2129.96 3413.95 2116.2 3436.88 2101.62C3447.1 2106.27 3455.81 2111.01 3464.86 2117.7C3471.22 2122.23 3477.55 2126.04 3481.5 2132.99C3481.13 2136.4 3481.51 2137.74 3479.31 2140.54C3464.26 2159.82 3415.45 2176.87 3391.2 2179.56C3352.01 2183.91 3314.22 2172.44 3283.8 2147.48C3255.94 2124.63 3238.13 2094.73 3234.96 2058.49C3231.14 2014.78 3238.94 1972.24 3268.02 1938.14C3291.79 1910.26 3325.16 1894.01 3361.46 1890.92ZM3356.56 1944.29C3334.89 1951.92 3319.82 1963.76 3309.77 1984.87C3306.68 1991.36 3304.59 1998.06 3302.65 2004.96L3373.13 2004.44C3383.8 2004.48 3415.19 2007.49 3422.15 2000.52C3424.91 1997.76 3426.66 1995.58 3426.9 1991.55C3427.58 1980.08 3416.13 1967.98 3408.18 1961.09C3394.3 1949.06 3378.65 1941.82 3360.14 1943.85C3358.95 1943.98 3357.75 1944.15 3356.56 1944.29Z"/>
	<path fill="#8D99AE" transform="scale(0.594727 0.594727)" d="M2086.18 1925.51C2108.77 1907.53 2131.67 1891.94 2161.82 1891.38Q2162.9 1891.36 2163.98 1891.36Q2165.05 1891.37 2166.13 1891.4Q2167.21 1891.44 2168.29 1891.49Q2169.36 1891.55 2170.44 1891.64Q2171.51 1891.73 2172.58 1891.84Q2173.65 1891.95 2174.72 1892.09Q2175.79 1892.23 2176.86 1892.4Q2177.92 1892.57 2178.98 1892.76Q2180.04 1892.95 2181.1 1893.17Q2182.15 1893.39 2183.2 1893.64Q2184.25 1893.88 2185.3 1894.16Q2186.34 1894.43 2187.38 1894.73Q2188.41 1895.02 2189.44 1895.35Q2190.47 1895.67 2191.49 1896.02Q2192.51 1896.37 2193.52 1896.75Q2194.53 1897.12 2195.53 1897.52Q2196.53 1897.92 2197.52 1898.35Q2198.51 1898.77 2199.49 1899.22Q2200.47 1899.67 2201.44 1900.14Q2202.41 1900.62 2203.37 1901.11Q2204.32 1901.61 2205.26 1902.13Q2206.21 1902.66 2207.14 1903.2Q2208.07 1903.75 2208.98 1904.31Q2209.9 1904.88 2210.8 1905.47Q2211.7 1906.06 2212.59 1906.68Q2213.48 1907.29 2214.35 1907.93Q2215.22 1908.56 2216.07 1909.22Q2216.93 1909.87 2217.77 1910.55Q2218.6 1911.23 2219.43 1911.93Q2220.25 1912.63 2221.05 1913.35Q2221.85 1914.06 2222.64 1914.8Q2223.42 1915.54 2224.19 1916.3Q2225.44 1917.51 2226.65 1918.77Q2227.85 1920.02 2229.02 1921.32Q2230.18 1922.61 2231.3 1923.95Q2232.41 1925.28 2233.48 1926.66Q2234.55 1928.03 2235.58 1929.44Q2236.6 1930.85 2237.58 1932.29Q2238.55 1933.73 2239.47 1935.21Q2240.4 1936.68 2241.27 1938.19Q2242.14 1939.7 2242.96 1941.23Q2243.78 1942.77 2244.55 1944.33Q2245.32 1945.9 2246.03 1947.48Q2246.74 1949.07 2247.4 1950.68Q2248.06 1952.3 2248.66 1953.93Q2249.26 1955.56 2249.81 1957.22Q2250.35 1958.87 2250.84 1960.54Q2251.33 1962.21 2251.76 1963.9C2259.1 1992.5 2255.99 2025.69 2256.14 2055.08L2256.78 2178.48Q2227.9 2178.74 2199.02 2178.25Q2198.39 2117.33 2199.14 2056.42C2199.28 2033.25 2201.61 2007.82 2197.69 1984.96C2196.19 1976.24 2192.75 1967.67 2186.9 1960.94C2178.41 1951.17 2163.77 1945.11 2150.94 1944.93C2139.81 1944.77 2131.13 1948.99 2123.44 1956.91C2114.87 1965.73 2109.69 1977.25 2107.24 1989.2C2100.79 2020.8 2105.34 2096.34 2105.42 2133.6Q2105.61 2156.28 2105.02 2178.96C2085.62 2179.51 2066.1 2179.06 2046.68 2179.05C2045.27 2138.88 2046.69 2098.25 2046.83 2058.03C2046.9 2037.25 2048.62 2015.08 2044.62 1994.62C2042.31 1982.78 2038.03 1971.13 2029.7 1962.14C2021.95 1953.78 2011.65 1949.54 2000.3 1949.31C1983.71 1948.97 1966.31 1956.06 1954.91 1968.16Q1953.76 1969.38 1952.7 1970.67Q1951.63 1971.96 1950.66 1973.32Q1949.68 1974.68 1948.8 1976.1Q1947.92 1977.52 1947.14 1979Q1946.35 1980.48 1945.67 1982.01Q1944.99 1983.53 1944.41 1985.1Q1943.84 1986.67 1943.37 1988.28Q1942.9 1989.89 1942.54 1991.52C1937.33 2014.44 1940.05 2041.59 1940.15 2065.12L1940.77 2178.82Q1910.62 2178.89 1880.47 2178.55C1878.02 2085.21 1879.75 1991.31 1879.54 1897.91C1899.71 1897 1920.22 1897.59 1940.42 1897.51L1940.77 1928.48C1960.04 1909.15 1973.9 1898.79 2001 1892.56C2038.57 1890.73 2058.69 1901.6 2086.18 1925.51Z"/>
	<path fill="#8D99AE" transform="scale(0.594727 0.594727)" d="M1407.03 1890.66C1440.48 1886.21 1476.38 1894.91 1504.42 1913.61C1536.41 1934.95 1552.46 1968.51 1559.79 2005.32C1568.07 2046.87 1563.64 2088 1539.57 2123.68C1514.68 2160.55 1482.2 2174.85 1439.71 2183.03C1401.14 2185.9 1361.9 2179.53 1331.18 2154.58C1300.83 2129.94 1283.07 2092.03 1279.15 2053.52C1275.06 2013.37 1281.06 1971.42 1307.55 1939.6C1332.48 1909.66 1368.75 1893.9 1407.03 1890.66ZM1414.7 1944.68C1391.17 1949.46 1372.91 1956.73 1358.94 1977.64C1342.92 2001.59 1339.6 2037.34 1345.47 2065.28C1349.56 2084.78 1360.17 2102.15 1376.99 2113.15C1392.1 2123.03 1407.52 2125.44 1425.17 2126.13C1446.97 2123.29 1464.23 2117.73 1478.26 2099.46C1496.04 2076.3 1499.72 2040.19 1495.05 2011.94C1491.59 1991.09 1481.77 1971.74 1464.42 1959.14C1449.84 1948.54 1432.48 1944.63 1414.7 1944.68Z"/>
	<path fill="#8D99AE" transform="scale(0.594727 0.594727)" d="M1698.95 1892.62C1734.28 1889.17 1768 1896.58 1797.39 1916.7C1830.01 1939.03 1848.89 1976.8 1855.63 2015.07C1862.61 2054.65 1855.01 2094.68 1831.47 2127.55C1805.71 2163.53 1772.09 2180.41 1729.19 2187.25C1695.38 2188.78 1661.07 2184.88 1632.61 2164.97C1603.09 2144.31 1579.53 2108.83 1572.97 2073.32C1565.36 2032.07 1576.7 1981.68 1600.53 1947.25C1624.69 1912.34 1659.13 1900.12 1698.95 1892.62ZM1705.73 1944.64C1683.1 1949.57 1665.21 1959.05 1652.16 1979.02C1635.43 2004.61 1633.41 2040.76 1640.42 2069.98C1645.81 2092.41 1658.58 2113.3 1678.72 2125.28C1693.55 2134.1 1708.22 2136.24 1725.13 2135.03C1748.86 2129.01 1768.1 2119.84 1781.23 2097.93C1796.55 2072.34 1798.65 2035.67 1790.39 2007.24C1783.75 1984.42 1769.05 1964.77 1747.81 1953.69C1734.62 1946.81 1720.54 1943.83 1705.73 1944.64Z"/>
	<path fill="#8D99AE" transform="scale(0.594727 0.594727)" d="M1048.33 1809.02C1072.31 1808.14 1096.59 1806.64 1120.57 1807.62C1158.76 1809.2 1194.96 1818.21 1221.54 1847.72C1240.3 1868.56 1246.34 1891.12 1244.77 1918.58C1242.08 1965.86 1217.69 1988.93 1184.58 2018.37Q1186.8 2020.83 1188.95 2023.35C1198.28 2034.18 1206.48 2046.19 1214.13 2058.25C1221.11 2069.25 1281.56 2173.65 1281.19 2178.76C1266.33 2185.27 1228.21 2180.71 1211 2180.33C1200.95 2167.39 1193.26 2153.02 1185.19 2138.81C1164.29 2104.45 1144.39 2061.85 1111.53 2037.73C1095.55 2036.69 1079.22 2037.22 1063.19 2037.09Q1063.96 2109.17 1063.34 2181.26C1042.03 2182.4 1020.47 2181.75 999.133 2181.43C996.793 2135.81 998.685 2089.31 998.922 2043.6L999.691 1812.88C1015.95 1812.12 1032.24 1811.67 1048.33 1809.02ZM1109.81 1858.86C1096.53 1859.34 1076.92 1857.55 1066.02 1866.11C1063.09 1884.24 1061.57 1964.93 1065.98 1979.65C1073.82 1986.14 1086.76 1984.29 1096.28 1983.38C1108.05 1982.26 1119.8 1980.56 1131.52 1978.99C1148.6 1973.68 1162.37 1967.34 1170.91 1950.46C1178.57 1935.31 1178.77 1915.97 1173.19 1900.12Q1172.66 1898.66 1172.06 1897.22Q1171.46 1895.78 1170.79 1894.38Q1170.12 1892.98 1169.38 1891.61Q1168.64 1890.24 1167.83 1888.91Q1167.02 1887.58 1166.14 1886.3Q1165.26 1885.01 1164.32 1883.77Q1163.38 1882.53 1162.38 1881.34Q1161.38 1880.15 1160.32 1879.01Q1159.26 1877.88 1158.14 1876.79Q1157.02 1875.71 1155.85 1874.69Q1154.68 1873.66 1153.46 1872.7Q1152.24 1871.73 1150.97 1870.83Q1149.7 1869.93 1148.39 1869.09Q1147.07 1868.26 1145.72 1867.49Q1144.37 1866.72 1142.97 1866.03Q1141.58 1865.33 1140.16 1864.7C1130.38 1860.3 1120.37 1859.46 1109.81 1858.86Z"/>
	<path fill="#C3C7C8" transform="scale(0.594727 0.594727)" d="M3144.25 1786.79C3166.34 1784.97 3189.12 1785.99 3211.28 1786.4C3213.06 1829.43 3211.96 1873.01 3212.26 1916.1Q3213.81 2045.52 3213.38 2174.94C3192.01 2176.13 3170.5 2175.5 3149.1 2175.33C3148.58 2168.52 3147.78 2161.92 3146.6 2155.2C3141.67 2153.83 3115.63 2170.9 3109.14 2173.91C3083.15 2185.99 3044.7 2180.31 3019.15 2170.04C3018.39 2169.72 3017.62 2169.43 3016.88 2169.09C2985.99 2154.82 2961.45 2125.03 2949.07 2093.78Q2948.36 2091.98 2947.7 2090.17Q2947.03 2088.36 2946.41 2086.53Q2945.79 2084.7 2945.22 2082.86Q2944.64 2081.01 2944.11 2079.16Q2943.58 2077.3 2943.1 2075.43Q2942.61 2073.56 2942.17 2071.68Q2941.74 2069.8 2941.34 2067.91Q2940.95 2066.02 2940.61 2064.12Q2940.26 2062.22 2939.96 2060.31Q2939.66 2058.4 2939.41 2056.48Q2939.16 2054.57 2938.95 2052.65Q2938.75 2050.73 2938.59 2048.8Q2938.43 2046.88 2938.32 2044.95Q2938.21 2043.02 2938.15 2041.09Q2938.09 2039.16 2938.07 2037.23Q2938.06 2035.3 2938.09 2033.37Q2938.12 2031.44 2938.2 2029.51Q2938.28 2027.58 2938.4 2025.65Q2938.53 2023.73 2938.7 2021.8Q2938.87 2019.88 2939.09 2017.96Q2939.31 2016.04 2939.58 2014.13Q2939.85 2012.22 2940.16 2010.31Q2940.48 2008.41 2940.84 2006.51Q2941.2 2004.61 2941.61 2002.72Q2942.01 2000.84 2942.47 1998.96Q2942.92 1997.08 2943.42 1995.22Q2943.92 1993.35 2944.46 1991.5Q2945.01 1989.64 2945.6 1987.81Q2946.19 1985.97 2946.82 1984.14Q2947.46 1982.32 2948.14 1980.51Q2948.82 1978.7 2949.54 1976.91Q2950.26 1975.12 2951.03 1973.35C2965.59 1940.48 2991.92 1914.15 3025.78 1901.52C3066.29 1886.39 3105.31 1891.09 3143.87 1908.84Q3143.34 1847.81 3144.25 1786.79ZM3073.48 1950.44C3050.06 1956.2 3031.93 1967.39 3019.06 1988.27C3005.63 2010.04 3000.67 2036.66 3007.29 2061.52C3012.82 2082.28 3025.23 2100.56 3044.36 2110.91C3059.15 2118.92 3073.13 2120.39 3089.6 2119.81C3110.16 2114.3 3125.82 2107.12 3137.21 2087.94C3151.46 2063.94 3152.33 2016.86 3144.37 1990.18C3140.13 1975.99 3130.73 1965.62 3117.69 1958.76C3104.64 1951.9 3088.1 1949.13 3073.48 1950.44Z"/>
	<path fill="#EDF2F4" transform="scale(0.594727 0.594727)" d="M3364.1 1586.39C3410.88 1582.72 3482.23 1585.38 3530.13 1586.74C3582.97 1644.05 3639.87 1698.21 3695.16 1753.16C3743.74 1801.45 3791.11 1851.07 3840.51 1898.5C3840.69 1991.2 3842.45 2084.44 3839.78 2177.08C3800.77 2179.83 3758.92 2178.54 3719.82 2176.71C3715.49 2097.66 3721.55 2017.48 3719.38 1938.24C3718.77 1915.9 3714.55 1904.92 3697.57 1889.48C3677.08 1870.86 3658.88 1867.49 3632.41 1868.82Q3592.8 1824.25 3551.47 1781.28C3525.32 1754.49 3372.4 1603.87 3364.1 1586.39Z"/>
	<path fill="#8D99AE" transform="scale(0.594727 0.594727)" d="M570.174 1594.86Q576.95 1594.49 583.736 1594.39Q590.522 1594.29 597.306 1594.46Q604.09 1594.63 610.862 1595.07Q617.635 1595.51 624.384 1596.21Q631.134 1596.91 637.851 1597.89Q644.567 1598.86 651.24 1600.09Q657.913 1601.33 664.532 1602.82Q671.151 1604.32 677.706 1606.08C765.373 1629.61 842.472 1691.4 887.598 1769.76C940.767 1862.08 958.65 1963.83 921.53 2065.58C910.36 2096.19 891.764 2125.55 883.723 2157.02L883.041 2159.77C887.485 2170.97 892.498 2180.74 899.947 2190.24C919.327 2214.97 944.508 2236.4 967.395 2257.87C1017.18 2304.57 1068.6 2349.15 1119.8 2394.25C1139.86 2411.92 1161.77 2430.05 1162.88 2458.93C1163.62 2478.32 1156.16 2496.34 1142.8 2510.31C1132.9 2520.67 1120.02 2526.22 1105.67 2526C1094.05 2525.82 1083.16 2521.76 1073.6 2515.28C1047.98 2497.92 986.281 2424.82 962.057 2398.66C932.153 2369.04 903.975 2336.24 875.998 2304.75C861.973 2288.97 848.45 2271.43 832.488 2257.59C828.716 2254.32 823.304 2249.55 818.263 2248.41C784.619 2240.82 736.163 2274.33 704.621 2286.05C678.389 2295.79 651.486 2302.58 623.515 2304.29C519.311 2310.64 425.018 2284.93 345.657 2214.09C272.016 2148.35 238.828 2060.35 233.492 1963.22Q233.294 1958.84 233.205 1954.46Q233.116 1950.08 233.136 1945.7Q233.155 1941.32 233.283 1936.94Q233.411 1932.55 233.647 1928.18Q233.884 1923.8 234.228 1919.43Q234.573 1915.07 235.026 1910.71Q235.479 1906.35 236.039 1902Q236.6 1897.66 237.268 1893.33Q237.936 1888.99 238.711 1884.68Q239.486 1880.37 240.368 1876.08Q241.25 1871.78 242.237 1867.51Q243.225 1863.24 244.318 1859Q245.411 1854.76 246.609 1850.54Q247.807 1846.33 249.109 1842.14Q250.411 1837.96 251.816 1833.81Q253.221 1829.66 254.729 1825.54Q256.236 1821.43 257.845 1817.35Q259.454 1813.27 261.164 1809.24Q262.873 1805.2 264.682 1801.21Q266.491 1797.22 268.398 1793.28Q270.305 1789.33 272.309 1785.43Q274.314 1781.54 276.414 1777.69Q278.514 1773.84 280.709 1770.05Q282.904 1766.26 285.192 1762.52Q287.48 1758.78 289.86 1755.1Q292.239 1751.42 294.71 1747.8Q297.18 1744.18 299.739 1740.63Q302.298 1737.07 304.945 1733.58Q307.591 1730.08 310.324 1726.66Q313.056 1723.23 315.872 1719.87Q318.688 1716.52 321.587 1713.23Q324.485 1709.94 327.464 1706.73C392.147 1635.69 474.935 1599.05 570.174 1594.86ZM829.766 2128.57C838.634 2116.45 847.204 2104.15 854.291 2090.88C892.564 2019.25 893.486 1941.7 869.748 1865.32C849.484 1791.73 791.823 1725.56 725.979 1688.58C661.211 1652.21 572.439 1641.64 501.074 1662.51C429.151 1683.56 361.151 1737.79 325.847 1804.05C287.229 1876.53 280.591 1969.67 305.203 2047.76C327.659 2119.01 379.119 2182.57 445.543 2217.01Q448.887 2218.74 452.272 2220.39Q455.658 2222.03 459.083 2223.6Q462.508 2225.16 465.971 2226.64Q469.434 2228.11 472.932 2229.5Q476.43 2230.89 479.962 2232.2Q483.494 2233.5 487.057 2234.72Q490.619 2235.93 494.211 2237.06Q497.803 2238.19 501.422 2239.23Q505.04 2240.27 508.684 2241.21Q512.327 2242.16 515.993 2243.02Q519.658 2243.88 523.344 2244.64Q527.03 2245.41 530.733 2246.09Q534.437 2246.76 538.156 2247.35Q541.875 2247.93 545.608 2248.42Q549.34 2248.91 553.084 2249.31Q556.827 2249.71 560.579 2250.02Q564.331 2250.32 568.09 2250.54Q571.849 2250.75 575.612 2250.87Q579.374 2250.99 583.139 2251.02Q586.903 2251.04 590.668 2250.98Q594.432 2250.91 598.193 2250.75Q601.954 2250.59 605.71 2250.34Q609.467 2250.09 613.215 2249.74Q616.964 2249.4 620.703 2248.96Q624.443 2248.52 628.17 2247.99Q631.897 2247.46 635.61 2246.84Q639.322 2246.21 643.019 2245.5Q646.715 2244.78 650.392 2243.98Q654.07 2243.17 657.726 2242.28Q661.383 2241.38 665.016 2240.39Q668.649 2239.41 672.257 2238.33Q675.864 2237.26 679.444 2236.09C737.492 2217.07 794.256 2178.8 829.766 2128.57Z"/>
	<path fill="#EDF2F4" fill-opacity="0.015686275" transform="scale(0.594727 0.594727)" d="M829.766 2128.57C794.256 2178.8 737.492 2217.07 679.444 2236.09Q675.864 2237.26 672.257 2238.33Q668.649 2239.41 665.016 2240.39Q661.383 2241.38 657.726 2242.28Q654.07 2243.17 650.392 2243.98Q646.715 2244.78 643.019 2245.5Q639.322 2246.21 635.61 2246.84Q631.897 2247.46 628.17 2247.99Q624.443 2248.52 620.703 2248.96Q616.964 2249.4 613.215 2249.74Q609.467 2250.09 605.71 2250.34Q601.954 2250.59 598.193 2250.75Q594.432 2250.91 590.668 2250.98Q586.903 2251.04 583.139 2251.02Q579.374 2250.99 575.612 2250.87Q571.849 2250.75 568.09 2250.54Q564.331 2250.32 560.579 2250.02Q556.827 2249.71 553.084 2249.31Q549.34 2248.91 545.608 2248.42Q541.875 2247.93 538.156 2247.35Q534.437 2246.76 530.733 2246.09Q527.03 2245.41 523.344 2244.64Q519.658 2243.88 515.993 2243.02Q512.327 2242.16 508.684 2241.21Q505.041 2240.27 501.422 2239.23Q497.803 2238.19 494.211 2237.06Q490.619 2235.93 487.057 2234.72Q483.494 2233.5 479.962 2232.2Q476.43 2230.89 472.932 2229.5Q469.434 2228.11 465.971 2226.63Q462.508 2225.16 459.083 2223.6Q455.658 2222.03 452.272 2220.39Q448.887 2218.74 445.543 2217.01C379.119 2182.57 327.659 2119.01 305.203 2047.76C280.591 1969.67 287.229 1876.53 325.847 1804.05C361.151 1737.79 429.151 1683.56 501.074 1662.51C572.439 1641.64 661.211 1652.21 725.979 1688.58C791.823 1725.56 849.484 1791.73 869.748 1865.32C893.486 1941.7 892.564 2019.25 854.291 2090.88C847.204 2104.15 838.634 2116.45 829.766 2128.57ZM388.096 2144.05L391.49 2147.46L396.978 2152.89C400.32 2153.61 405.367 2154.46 408.225 2156.25C413.069 2159.29 418.681 2170.58 423.474 2175.17C433.126 2184.42 448.325 2191.9 460.186 2197.99C525.883 2231.71 592.501 2239.39 663.148 2216.57C739.167 2192.03 806.666 2136.95 843.004 2065.2C863.595 2024.54 871.837 1975.27 857.025 1931.27C856.1 1928.53 855.428 1926.69 855.092 1923.72C855.015 1923.04 855.022 1922.36 854.987 1921.67C853.353 1917.93 853.142 1914.52 852.66 1910.51C852.432 1910.01 852.197 1909.51 851.976 1909C843.307 1889.19 840.275 1867.04 832.189 1846.87C802.325 1772.4 746.827 1722.83 673.201 1693.59C668.202 1691.61 663.072 1690.74 657.804 1689.82C645.589 1687.67 634.473 1685.3 623.227 1679.92C620.459 1678.59 617.64 1677.56 614.749 1676.54L616.621 1676.54C587.75 1665.95 565.248 1669.59 536.01 1674.83C526.76 1676.48 516.372 1677.52 507.65 1680.96L513.163 1682.69C509.809 1684.57 507.191 1685.32 503.477 1685.9C451.633 1693.97 395.284 1740.74 365.339 1782.56C321.094 1844.36 305.016 1929.86 317.454 2004.32C323.949 2043.19 340.018 2072.33 360.732 2105.15C368.153 2116.91 376.238 2128.26 381.359 2141.25C385.27 2144.3 383.039 2143.34 388.096 2144.05ZM852.66 1910.51C853.142 1914.52 853.353 1917.93 854.987 1921.67C860.277 1924.77 860.506 1927.13 861.856 1933.01C863.401 1939.73 864.391 1946.25 866.316 1952.92C877.164 1990.55 861.043 2041.79 842.588 2075.18C835.59 2087.85 827.569 2099.58 822.835 2113.34C822.463 2114.42 822.053 2115.49 821.672 2116.57L821.005 2118.51L814.39 2121.86C813.117 2125.82 812.691 2125.06 814.35 2129.33C820.078 2131.06 824.147 2129.87 829.766 2128.57C838.634 2116.45 847.204 2104.15 854.291 2090.88C892.564 2019.25 893.486 1941.7 869.748 1865.32C863.123 1869.94 863.31 1869.66 861.299 1877.53C857.928 1873.2 859.068 1867.53 855.208 1864.99C851.957 1867.51 852.205 1866.2 851.918 1869.47C850.75 1882.77 853.333 1896.87 852.66 1910.51Z"/>
	<path fill="#EDF2F4" fill-opacity="0.050980393" transform="scale(0.594727 0.594727)" d="M388.096 2144.05C383.039 2143.34 385.27 2144.3 381.359 2141.25C376.238 2128.26 368.153 2116.91 360.732 2105.15C340.018 2072.33 323.949 2043.19 317.454 2004.32C305.016 1929.86 321.094 1844.36 365.339 1782.56C395.284 1740.74 451.633 1693.97 503.477 1685.9C507.191 1685.32 509.809 1684.57 513.163 1682.69L507.65 1680.96C516.372 1677.52 526.76 1676.48 536.01 1674.83C565.248 1669.59 587.75 1665.95 616.621 1676.54L614.749 1676.54C617.64 1677.56 620.459 1678.59 623.227 1679.92C634.473 1685.3 645.589 1687.67 657.804 1689.82C663.072 1690.74 668.202 1691.61 673.201 1693.59C746.827 1722.83 802.325 1772.4 832.189 1846.87C840.275 1867.04 843.307 1889.19 851.976 1909C852.197 1909.51 852.432 1910.01 852.66 1910.51C853.142 1914.52 853.353 1917.93 854.987 1921.67C855.022 1922.36 855.015 1923.04 855.092 1923.72C855.428 1926.69 856.1 1928.53 857.025 1931.27C871.837 1975.27 863.595 2024.54 843.004 2065.2C806.666 2136.95 739.167 2192.03 663.148 2216.57C592.501 2239.39 525.883 2231.71 460.186 2197.99C448.325 2191.9 433.126 2184.42 423.474 2175.17C418.681 2170.58 413.069 2159.29 408.225 2156.25C405.367 2154.46 400.32 2153.61 396.978 2152.89L391.49 2147.46L388.096 2144.05ZM603.006 2023.72L597.105 2031.93L598.144 2033.74C602.872 2033.51 607.67 2033.08 612.4 2033.13C650.117 2015.23 689.498 2000.52 727.509 1983.12C728.373 1983.43 730.662 1984.19 731.312 1984.74C736.336 1988.96 735.632 2011.18 736.065 2018.34C736.368 2013.44 736.431 2008.38 737.51 2003.58C739.425 1995.07 735.91 1990.07 734.633 1981.76L736.202 1980.21C739.126 1977.28 744.619 1973.1 744.64 1968.94C739.251 1965.81 733.684 1966.87 727.529 1966.82C757.724 1953.63 791.356 1942.3 818.477 1923.49C792.79 1908.6 761.873 1899.22 734.405 1887.7C685.406 1867.14 636.887 1844.2 586.891 1826.2C523.293 1851.43 459.163 1884.16 393.487 1903.25C382.162 1906.54 369.071 1913.48 360.081 1921.12L360.195 1923.53C383.943 1941.15 583.183 2027.9 597.298 2025.26C599.739 2024.81 600.748 2024.43 603.006 2023.72Z"/>
	<path fill="#8D99AE" transform="scale(0.594727 0.594727)" d="M388.096 2144.05C382.525 2133.57 382.038 2124.43 385.736 2113.08C390.514 2098.41 406.861 2088 410.019 2074.03C407.394 2069.75 404.552 2066.26 401.284 2062.48C398.397 2053.41 406.9 2041.58 407.722 2032.02C409.391 2012.62 403.275 1990.86 409.69 1971.97L411.88 1972.15C420.799 1990.64 424.462 2056.81 417.838 2075.87C420.324 2080.66 422.906 2085.12 425.904 2089.61C433.319 2100.71 439.85 2114.68 437.042 2128.35C435.695 2134.92 432.135 2140.42 426.417 2143.97C415.822 2150.54 403.205 2149.72 391.49 2147.46L388.096 2144.05Z"/>
	<path fill="#8D99AE" transform="scale(0.594727 0.594727)" d="M727.509 1983.12C729.616 2008.48 735.156 2057.21 718.841 2077.83C698.81 2103.16 642.668 2107.71 612.971 2110.04C566.179 2113.71 499.691 2108.05 462.189 2076.42Q457.604 2072.58 453.32 2068.4C449.142 2040.42 446.709 2013.02 448.295 1984.66C498.568 1997.52 542.99 2028.22 593.3 2042.49L612.4 2033.13C650.117 2015.23 689.498 2000.52 727.509 1983.12Z"/>
	<path fill="#8D99AE" transform="scale(0.594727 0.594727)" d="M603.006 2023.72C600.748 2024.43 599.739 2024.81 597.298 2025.26C583.183 2027.9 383.943 1941.15 360.195 1923.53L360.081 1921.12C369.071 1913.48 382.162 1906.54 393.487 1903.25C459.163 1884.16 523.293 1851.43 586.891 1826.2C636.887 1844.2 685.406 1867.14 734.405 1887.7C761.873 1899.22 792.79 1908.6 818.477 1923.49C791.356 1942.3 757.724 1953.63 727.529 1966.82C733.684 1966.87 739.251 1965.81 744.64 1968.94C744.619 1973.1 739.126 1977.28 736.202 1980.21L734.633 1981.76C735.91 1990.07 739.425 1995.07 737.51 2003.58C736.431 2008.38 736.368 2013.44 736.065 2018.34C735.632 2011.18 736.336 1988.96 731.312 1984.74C730.662 1984.19 728.373 1983.43 727.509 1983.12C689.498 2000.52 650.117 2015.23 612.4 2033.13C607.67 2033.08 602.872 2033.51 598.144 2033.74L597.105 2031.93L603.006 2023.72ZM727.529 1966.82C705.675 1976.82 614.149 2012.08 603.006 2023.72L597.105 2031.93L598.144 2033.74C602.872 2033.51 607.67 2033.08 612.4 2033.13C650.117 2015.23 689.498 2000.52 727.509 1983.12C728.373 1983.43 730.662 1984.19 731.312 1984.74C736.336 1988.96 735.632 2011.18 736.065 2018.34C736.368 2013.44 736.431 2008.38 737.51 2003.58C739.425 1995.07 735.91 1990.07 734.633 1981.76L736.202 1980.21C739.126 1977.28 744.619 1973.1 744.64 1968.94C739.251 1965.81 733.684 1966.87 727.529 1966.82Z"/>
	<path fill="#EDF2F4" fill-opacity="0.023529412" transform="scale(0.594727 0.594727)" d="M727.529 1966.82C733.684 1966.87 739.251 1965.81 744.64 1968.94C744.619 1973.1 739.126 1977.28 736.202 1980.21L734.633 1981.76C735.91 1990.07 739.425 1995.07 737.51 2003.58C736.431 2008.38 736.368 2013.44 736.065 2018.34C735.632 2011.18 736.336 1988.96 731.312 1984.74C730.662 1984.19 728.373 1983.43 727.509 1983.12C689.498 2000.52 650.117 2015.23 612.4 2033.13C607.67 2033.08 602.872 2033.51 598.144 2033.74L597.105 2031.93L603.006 2023.72C614.149 2012.08 705.675 1976.82 727.529 1966.82Z"/>
</svg>
