<svg xmlns="http://www.w3.org/2000/svg" width="781.09" height="731.054" viewBox="0 0 781.09 731.054" xmlns:xlink="http://www.w3.org/1999/xlink" role="img" artist="Katerina Limpitsouni" source="https://undraw.co/">
  <g id="Group_73" data-name="Group 73" transform="translate(-586 -169.191)">
    <path id="Path_1101-1118" data-name="Path 1101" d="M629.252,252.139h-4V142.593a63.4,63.4,0,0,0-63.4-63.4H329.765a63.4,63.4,0,0,0-63.4,63.4V743.568a63.4,63.4,0,0,0,63.4,63.4H561.851a63.4,63.4,0,0,0,63.4-63.4V330.115h4Z" transform="translate(360 90)" fill="#090814"/>
    <path id="Path_1102-1119" data-name="Path 1102" d="M564.409,95.686H534.115a22.495,22.495,0,0,1-20.827,30.991H380.328A22.495,22.495,0,0,1,359.5,95.686h-28.3a47.348,47.348,0,0,0-47.348,47.348V743.127a47.348,47.348,0,0,0,47.348,47.348h233.2a47.348,47.348,0,0,0,47.348-47.348V143.034A47.348,47.348,0,0,0,564.41,95.686Z" transform="translate(360.143 90)" fill="#fff"/>
    <g id="Group_70" data-name="Group 70" transform="translate(17.473 -57.904)">
      <path id="Path_1118-1120" data-name="Path 1118" d="M3.838,0H78.822a3.838,3.838,0,1,1,0,7.676H3.838A3.838,3.838,0,0,1,3.838,0Z" transform="translate(757.57 678)" fill="#6c63ff"/>
      <path id="Path_1117-1121" data-name="Path 1117" d="M3.838,0H140.231a3.838,3.838,0,0,1,0,7.676H3.838A3.838,3.838,0,0,1,3.838,0Z" transform="translate(757.57 697)" fill="#e6e6e6"/>
      <path id="Path_1116-1122" data-name="Path 1116" d="M3.838,0H140.09a3.838,3.838,0,0,1,0,7.676H3.838A3.838,3.838,0,0,1,3.838,0Z" transform="translate(757.57 715)" fill="#e6e6e6"/>
      <path id="Path_1119-1123" data-name="Path 1119" d="M8,0H53.409a8,8,0,0,1,8,8V53.409a8,8,0,0,1-8,8H8a8,8,0,0,1-8-8V8A8,8,0,0,1,8,0Z" transform="translate(679.03 669.409)" fill="#6c63ff"/>
    </g>
    <circle id="Ellipse_191" data-name="Ellipse 191" cx="30.449" cy="30.449" r="30.449" transform="translate(1189.79 438.983)" fill="#090814"/>
    <path id="Path_1103-1124" data-name="Path 1103" d="M876.271,399.7s-.458,18.8,1.375,19.254-25.214,7.793-25.214,7.793l-2.751-25.672Z" transform="translate(360 90)" fill="#ffb9b9"/>
    <path id="Path_1104-1125" data-name="Path 1104" d="M662.644,560.155s-20.171,0-20.629-2.292-4.584,18.8-4.584,18.8l8.252,2.751s15.587-6.876,16.962-6.876S662.644,560.155,662.644,560.155Z" transform="translate(360 90)" fill="#ffb9b9"/>
    <path id="Path_1105-1126" data-name="Path 1105" d="M640.639,568.406s3.667-12.378,8.252-12.836c0,0-15.587-10.085-16.045-13.294s-5.96-11.461-8.252-8.71-2.292,46.3,1.834,50.886,22.463-6.444,22.463-6.444S637.43,572.991,640.639,568.406Z" transform="translate(360 90)" fill="#090814"/>
    <path id="Path_1106-1127" data-name="Path 1106" d="M688.314,664.793l3.667,19.712-16.962,2.751V664.793Z" transform="translate(561.252 169.191)" fill="#ffb9b9"/>
    <path id="Path_1107-1128" data-name="Path 1107" d="M889.566,761.4s2.751-8.71,4.584-7.335,4.584,10.085,4.126,12.378-3.667,20.171-2.292,23.38-6.876,19.712-17.42,18.337-9.627-10.544-9.627-10.544l3.667-14.211,1.375-22.463S885.9,759.112,889.566,761.4Z" transform="translate(360 90)" fill="#090814"/>
    <circle id="Ellipse_192" data-name="Ellipse 192" cx="12.6" cy="12.6" r="12.6" transform="translate(1218.291 424.786)" fill="#090814"/>
    <path id="Path_1108-1129" data-name="Path 1108" d="M887.691,340.56A12.6,12.6,0,0,0,876.4,328.029a12.735,12.735,0,0,1,1.312-.068,12.6,12.6,0,1,1,0,25.2,12.74,12.74,0,0,1-1.313-.068,12.6,12.6,0,0,0,11.287-12.532Z" transform="translate(360 90)" fill="#090814"/>
    <circle id="Ellipse_193" data-name="Ellipse 193" cx="19.254" cy="19.254" r="19.254" transform="translate(1200.972 464.033)" fill="#ffb9b9"/>
    <path id="Path_1109-1130" data-name="Path 1109" d="M898.276,527.148s-.917,22.921-4.584,34.841-16.889,96.8-14.139,103.222,16.889,77.4,13.68,81.524-18.337,2.751-18.337,2.751l-20.557-86.109s4.053-94.971-29.87-97.263-89.394-3.667-89.394-3.667-35.757,10.544-51.8,10.085-25.214,4.126-25.214,4.126l-2.751-18.8,71.056-15.587s65.1-22.463,100.854-16.5S898.276,527.148,898.276,527.148Z" transform="translate(360 90)" fill="#090814"/>
    <path id="Path_1110-1131" data-name="Path 1110" d="M872.6,413s5.5-3.209,6.876,0,11,5.96,14.67,3.209,12.836.917,12.836.917l10.085,29.8s-5.043,25.672-9.627,39.883-6.418,43.551-4.584,46.3-36.674,13.753-55.47,6.876-22.921-14.67-22.921-14.67,20.629-29.339,13.753-43.092-1.375-29.339-1.375-29.339L834.1,437.3l15.587-8.71s.917-8.252,4.584-8.252S872.6,413,872.6,413Z" transform="translate(360 90)" fill="#d6d6e3"/>
    <path id="Path_1111-1132" data-name="Path 1111" d="M840.972,437.754H834.1a15.39,15.39,0,0,0-4.584,14.211c1.834,8.71,10.1,37.587,10.1,37.587l6.858-17.874Z" transform="translate(360 90)" fill="#d6d6e3"/>
    <path id="Path_1112-1133" data-name="Path 1112" d="M821.226,511.375s-13.719,14.856-3.634,22.649,12.571-17.879,12.571-17.879Z" transform="translate(360 90)" fill="#ffb8b8"/>
    <path id="Path_1113-1134" data-name="Path 1113" d="M840.972,480.388l-3.209,12.836-5.5,10.085s-18.8,12.378-18.8,16.962c0,0,8.252-10.544,18.8,0l9.4-22.692Z" transform="translate(360 90)" fill="#d6d6e3"/>
    <ellipse id="Ellipse_194" data-name="Ellipse 194" cx="21" cy="12.6" rx="21" ry="12.6" transform="translate(1195.698 450.377)" fill="#090814"/>
    <path id="Path_1114-1135" data-name="Path 1114" d="M898.276,374.033s-14.67-8.252-20.629-2.292,17.879,15.128,17.879,15.128Z" transform="translate(360 90)" fill="#ffb9b9"/>
    <path id="Path_1115-1136" data-name="Path 1115" d="M903.777,419.417l3.209-2.292s3.667-5.5,6.876-3.667,22-6.876,22-6.876-6.876,3.209-6.876-2.292-.917-4.584-5.5-4.584-4.584,2.292-6.418-.917-.917-5.043-4.126-3.209-6.876.458-7.793-.917-17.42-3.667-17.42-3.667,6.418-18.8,7.793-20.171S932.2,385.035,932.2,385.035s44.468,12.378,33.007,26.589-52.719,35.757-52.719,35.757Z" transform="translate(360 90)" fill="#d6d6e3"/>
    <g id="Group_71" data-name="Group 71" transform="translate(17.473 -175.409)">
      <path id="Path_1118-2-1137" data-name="Path 1118" d="M3.838,0H78.822a3.838,3.838,0,1,1,0,7.676H3.838A3.838,3.838,0,0,1,3.838,0Z" transform="translate(757.57 678)" fill="#6c63ff"/>
      <path id="Path_1117-2-1138" data-name="Path 1117" d="M3.838,0H140.231a3.838,3.838,0,0,1,0,7.676H3.838A3.838,3.838,0,0,1,3.838,0Z" transform="translate(757.57 697)" fill="#e6e6e6"/>
      <path id="Path_1116-2-1139" data-name="Path 1116" d="M3.838,0H140.09a3.838,3.838,0,0,1,0,7.676H3.838A3.838,3.838,0,0,1,3.838,0Z" transform="translate(757.57 715)" fill="#e6e6e6"/>
      <path id="Path_1119-2-1140" data-name="Path 1119" d="M8,0H53.409a8,8,0,0,1,8,8V53.409a8,8,0,0,1-8,8H8a8,8,0,0,1-8-8V8A8,8,0,0,1,8,0Z" transform="translate(679.03 669.409)" fill="#6c63ff"/>
    </g>
    <g id="Group_72" data-name="Group 72" transform="translate(17.473 -292.913)">
      <path id="Path_1118-3-1141" data-name="Path 1118" d="M3.838,0H78.822a3.838,3.838,0,1,1,0,7.676H3.838A3.838,3.838,0,0,1,3.838,0Z" transform="translate(757.57 678)" fill="#6c63ff"/>
      <path id="Path_1117-3-1142" data-name="Path 1117" d="M3.838,0H140.231a3.838,3.838,0,0,1,0,7.676H3.838A3.838,3.838,0,0,1,3.838,0Z" transform="translate(757.57 697)" fill="#e6e6e6"/>
      <path id="Path_1116-3-1143" data-name="Path 1116" d="M3.838,0H140.09a3.838,3.838,0,0,1,0,7.676H3.838A3.838,3.838,0,0,1,3.838,0Z" transform="translate(757.57 715)" fill="#e6e6e6"/>
      <path id="Path_1119-3-1144" data-name="Path 1119" d="M8,0H53.409a8,8,0,0,1,8,8V53.409a8,8,0,0,1-8,8H8a8,8,0,0,1-8-8V8A8,8,0,0,1,8,0Z" transform="translate(679.03 669.409)" fill="#6c63ff"/>
    </g>
    <rect id="Rectangle_347" data-name="Rectangle 347" width="230.409" height="61.409" rx="30.705" transform="translate(693 736.01)" fill="#e6e6e6"/>
    <rect id="Rectangle_348" data-name="Rectangle 348" width="61.409" height="61.409" rx="30.705" transform="translate(777.103 258.991)" fill="#e6e6e6"/>
    <path id="Path_610-1145" data-name="Path 610" d="M781.09,465.237H0v-2H780.307Z" transform="translate(586 435.009)" fill="#ccc"/>
  </g>
</svg>